<mxfile host="app.diagrams.net" agent="Mozilla/5.0 (X11; Linux x86_64) AppleWebKit/537.36 (KHTML, like Gecko) Chrome/134.0.0.0 Safari/537.36" version="26.2.12">
  <diagram name="Page-1" id="zcGo8ZKz6vd4txAli94Q">
    <mxGraphModel grid="1" page="1" gridSize="10" guides="1" tooltips="1" connect="1" arrows="1" fold="1" pageScale="1" pageWidth="850" pageHeight="1100" math="0" shadow="0">
      <root>
        <mxCell id="0" />
        <mxCell id="1" parent="0" />
        <mxCell id="oled7UmUhslEgD_XcxZ6-2" value="book" style="swimlane;childLayout=stackLayout;horizontal=1;startSize=50;horizontalStack=0;rounded=1;fontSize=14;fontStyle=0;strokeWidth=2;resizeParent=0;resizeLast=1;shadow=0;dashed=0;align=center;arcSize=4;whiteSpace=wrap;html=1;" vertex="1" parent="1">
          <mxGeometry x="40" y="40" width="150" height="190" as="geometry" />
        </mxCell>
        <mxCell id="oled7UmUhslEgD_XcxZ6-3" value="book_id (PK)-INT,AUTO_INCREMENT&lt;div&gt;title-VARCHAR(255)&lt;/div&gt;&lt;div&gt;isbn-VARCHAR(13)&lt;/div&gt;&lt;div&gt;price-DECIMAL(10,2)&lt;/div&gt;&lt;div&gt;publisher_id (FK) -INT&lt;/div&gt;&lt;div&gt;language_id (FK) - INT&lt;/div&gt;&lt;div&gt;publication_year - YEAR&lt;/div&gt;" style="align=left;strokeColor=none;fillColor=none;spacingLeft=4;spacingRight=4;fontSize=12;verticalAlign=top;resizable=0;rotatable=0;part=1;html=1;whiteSpace=wrap;" vertex="1" parent="oled7UmUhslEgD_XcxZ6-2">
          <mxGeometry y="50" width="150" height="140" as="geometry" />
        </mxCell>
        <mxCell id="oled7UmUhslEgD_XcxZ6-5" value="author" style="swimlane;childLayout=stackLayout;horizontal=1;startSize=50;horizontalStack=0;rounded=1;fontSize=14;fontStyle=0;strokeWidth=2;resizeParent=0;resizeLast=1;shadow=0;dashed=0;align=center;arcSize=4;whiteSpace=wrap;html=1;" vertex="1" parent="1">
          <mxGeometry x="265" y="40" width="160" height="150" as="geometry" />
        </mxCell>
        <mxCell id="oled7UmUhslEgD_XcxZ6-6" value="author_id (PK) - INT,AUTO_INCREMENT&lt;div&gt;first_name - VARCHAR(100)&lt;/div&gt;&lt;div&gt;lat_name - VARCHAR(100)&lt;/div&gt;&lt;div&gt;bio - TEXT (optional)&lt;/div&gt;" style="align=left;strokeColor=none;fillColor=none;spacingLeft=4;spacingRight=4;fontSize=12;verticalAlign=top;resizable=0;rotatable=0;part=1;html=1;whiteSpace=wrap;" vertex="1" parent="oled7UmUhslEgD_XcxZ6-5">
          <mxGeometry y="50" width="160" height="100" as="geometry" />
        </mxCell>
        <mxCell id="oled7UmUhslEgD_XcxZ6-11" value="book_language" style="swimlane;childLayout=stackLayout;horizontal=1;startSize=50;horizontalStack=0;rounded=1;fontSize=14;fontStyle=0;strokeWidth=2;resizeParent=0;resizeLast=1;shadow=0;dashed=0;align=center;arcSize=4;whiteSpace=wrap;html=1;" vertex="1" parent="1">
          <mxGeometry x="630" y="40" width="140" height="120" as="geometry" />
        </mxCell>
        <mxCell id="oled7UmUhslEgD_XcxZ6-12" value="language_id (PK) - INT,AUTO_INCREMENT&lt;div&gt;language_name - VARCHAR(100)&lt;/div&gt;" style="align=left;strokeColor=none;fillColor=none;spacingLeft=4;spacingRight=4;fontSize=12;verticalAlign=top;resizable=0;rotatable=0;part=1;html=1;whiteSpace=wrap;" vertex="1" parent="oled7UmUhslEgD_XcxZ6-11">
          <mxGeometry y="50" width="140" height="70" as="geometry" />
        </mxCell>
        <mxCell id="oled7UmUhslEgD_XcxZ6-17" value="customer" style="swimlane;childLayout=stackLayout;horizontal=1;startSize=50;horizontalStack=0;rounded=1;fontSize=14;fontStyle=0;strokeWidth=2;resizeParent=0;resizeLast=1;shadow=0;dashed=0;align=center;arcSize=4;whiteSpace=wrap;html=1;" vertex="1" parent="1">
          <mxGeometry x="890" y="40" width="150" height="190" as="geometry" />
        </mxCell>
        <mxCell id="oled7UmUhslEgD_XcxZ6-18" value="customer_id (PK)-INT,AUTO_INCREMENT&lt;div&gt;first_name-VARCHAR(100)&lt;/div&gt;&lt;div&gt;last_name-VARCHAR(100)&lt;/div&gt;&lt;div&gt;email-VARCHAR(255)&lt;/div&gt;&lt;div&gt;phone_number - VARCHAR(20)&lt;/div&gt;" style="align=left;strokeColor=none;fillColor=none;spacingLeft=4;spacingRight=4;fontSize=12;verticalAlign=top;resizable=0;rotatable=0;part=1;html=1;whiteSpace=wrap;" vertex="1" parent="oled7UmUhslEgD_XcxZ6-17">
          <mxGeometry y="50" width="150" height="140" as="geometry" />
        </mxCell>
        <mxCell id="7qd3vkHu0DefnyJ5vtt9-50" value="" style="edgeStyle=orthogonalEdgeStyle;rounded=0;orthogonalLoop=1;jettySize=auto;html=1;" edge="1" parent="1" source="oled7UmUhslEgD_XcxZ6-29" target="oled7UmUhslEgD_XcxZ6-77">
          <mxGeometry relative="1" as="geometry" />
        </mxCell>
        <mxCell id="oled7UmUhslEgD_XcxZ6-29" value="address" style="swimlane;childLayout=stackLayout;horizontal=1;startSize=50;horizontalStack=0;rounded=1;fontSize=14;fontStyle=0;strokeWidth=2;resizeParent=0;resizeLast=1;shadow=0;dashed=0;align=center;arcSize=4;whiteSpace=wrap;html=1;" vertex="1" parent="1">
          <mxGeometry x="650" y="400" width="160" height="180" as="geometry" />
        </mxCell>
        <mxCell id="oled7UmUhslEgD_XcxZ6-30" value="address_id(PK) -INT,AUTO_INCREMENT&lt;div&gt;street - VARCHAR(255)&lt;/div&gt;&lt;div&gt;city- varchar(100)&lt;/div&gt;&lt;div&gt;postal_code - VARCHAR(20)&lt;/div&gt;&lt;div&gt;country_id (FK) - INT&lt;/div&gt;&lt;div&gt;status_id(FK) - INT&lt;/div&gt;" style="align=left;strokeColor=none;fillColor=none;spacingLeft=4;spacingRight=4;fontSize=12;verticalAlign=top;resizable=0;rotatable=0;part=1;html=1;whiteSpace=wrap;" vertex="1" parent="oled7UmUhslEgD_XcxZ6-29">
          <mxGeometry y="50" width="160" height="130" as="geometry" />
        </mxCell>
        <mxCell id="oled7UmUhslEgD_XcxZ6-33" value="customer_address" style="swimlane;childLayout=stackLayout;horizontal=1;startSize=50;horizontalStack=0;rounded=1;fontSize=14;fontStyle=0;strokeWidth=2;resizeParent=0;resizeLast=1;shadow=0;dashed=0;align=center;arcSize=4;whiteSpace=wrap;html=1;" vertex="1" parent="1">
          <mxGeometry x="280" y="260" width="160" height="120" as="geometry" />
        </mxCell>
        <mxCell id="oled7UmUhslEgD_XcxZ6-34" value="customer_id(FK)-INT&lt;div&gt;address_id(FK)- INT&lt;/div&gt;&lt;div&gt;status_id(FK) - INT&lt;/div&gt;" style="align=left;strokeColor=none;fillColor=none;spacingLeft=4;spacingRight=4;fontSize=12;verticalAlign=top;resizable=0;rotatable=0;part=1;html=1;whiteSpace=wrap;" vertex="1" parent="oled7UmUhslEgD_XcxZ6-33">
          <mxGeometry y="50" width="160" height="70" as="geometry" />
        </mxCell>
        <mxCell id="7qd3vkHu0DefnyJ5vtt9-59" value="" style="edgeStyle=orthogonalEdgeStyle;rounded=0;orthogonalLoop=1;jettySize=auto;html=1;" edge="1" parent="1" source="oled7UmUhslEgD_XcxZ6-35" target="oled7UmUhslEgD_XcxZ6-30">
          <mxGeometry relative="1" as="geometry" />
        </mxCell>
        <mxCell id="oled7UmUhslEgD_XcxZ6-35" value="country" style="swimlane;childLayout=stackLayout;horizontal=1;startSize=50;horizontalStack=0;rounded=1;fontSize=14;fontStyle=0;strokeWidth=2;resizeParent=0;resizeLast=1;shadow=0;dashed=0;align=center;arcSize=4;whiteSpace=wrap;html=1;" vertex="1" parent="1">
          <mxGeometry x="620" y="630" width="160" height="120" as="geometry" />
        </mxCell>
        <mxCell id="oled7UmUhslEgD_XcxZ6-36" value="country_id(PK) - INT,AUTO_INCREMENT&lt;div&gt;country_name - VARCHAR(100)&lt;/div&gt;&lt;div&gt;&lt;br&gt;&lt;/div&gt;" style="align=left;strokeColor=none;fillColor=none;spacingLeft=4;spacingRight=4;fontSize=12;verticalAlign=top;resizable=0;rotatable=0;part=1;html=1;whiteSpace=wrap;" vertex="1" parent="oled7UmUhslEgD_XcxZ6-35">
          <mxGeometry y="50" width="160" height="70" as="geometry" />
        </mxCell>
        <mxCell id="oled7UmUhslEgD_XcxZ6-43" value="order_history" style="swimlane;childLayout=stackLayout;horizontal=1;startSize=50;horizontalStack=0;rounded=1;fontSize=14;fontStyle=0;strokeWidth=2;resizeParent=0;resizeLast=1;shadow=0;dashed=0;align=center;arcSize=4;whiteSpace=wrap;html=1;" vertex="1" parent="1">
          <mxGeometry x="885" y="530" width="160" height="150" as="geometry" />
        </mxCell>
        <mxCell id="oled7UmUhslEgD_XcxZ6-44" value="history_id(PK) - INT,AUTO_INCREMENT&lt;div&gt;order_id(FK) - INT&lt;/div&gt;&lt;div&gt;status_id(FK) -INT&lt;/div&gt;&lt;div&gt;changed_at - DATETIME&lt;/div&gt;&lt;div&gt;note - TEXT(optional)&lt;/div&gt;" style="align=left;strokeColor=none;fillColor=none;spacingLeft=4;spacingRight=4;fontSize=12;verticalAlign=top;resizable=0;rotatable=0;part=1;html=1;whiteSpace=wrap;" vertex="1" parent="oled7UmUhslEgD_XcxZ6-43">
          <mxGeometry y="50" width="160" height="100" as="geometry" />
        </mxCell>
        <mxCell id="oled7UmUhslEgD_XcxZ6-45" value="order_status" style="swimlane;childLayout=stackLayout;horizontal=1;startSize=50;horizontalStack=0;rounded=1;fontSize=14;fontStyle=0;strokeWidth=2;resizeParent=0;resizeLast=1;shadow=0;dashed=0;align=center;arcSize=4;whiteSpace=wrap;html=1;" vertex="1" parent="1">
          <mxGeometry x="885" y="730" width="160" height="120" as="geometry" />
        </mxCell>
        <mxCell id="oled7UmUhslEgD_XcxZ6-46" value="status_id(PK) - INT,AUTO_INCREMENT&lt;div&gt;status_name - VARCHAR(100)&lt;/div&gt;" style="align=left;strokeColor=none;fillColor=none;spacingLeft=4;spacingRight=4;fontSize=12;verticalAlign=top;resizable=0;rotatable=0;part=1;html=1;whiteSpace=wrap;" vertex="1" parent="oled7UmUhslEgD_XcxZ6-45">
          <mxGeometry y="50" width="160" height="70" as="geometry" />
        </mxCell>
        <mxCell id="oled7UmUhslEgD_XcxZ6-74" value="cust_order" style="swimlane;childLayout=stackLayout;horizontal=1;startSize=50;horizontalStack=0;rounded=1;fontSize=14;fontStyle=0;strokeWidth=2;resizeParent=0;resizeLast=1;shadow=0;dashed=0;align=center;arcSize=4;whiteSpace=wrap;html=1;" vertex="1" parent="1">
          <mxGeometry x="890" y="280" width="150" height="190" as="geometry" />
        </mxCell>
        <mxCell id="oled7UmUhslEgD_XcxZ6-75" value="order_id(PK) - INT,AUTO_INCREMENT&lt;div&gt;customer_id (FK) - INT&lt;/div&gt;&lt;div&gt;order_date - DATETIME&lt;/div&gt;&lt;div&gt;shipping_method_id(FK) -INT&lt;/div&gt;&lt;div&gt;status_id (FK) - INT&lt;/div&gt;&lt;div&gt;total_amount - DECIMAL(10,2)&lt;/div&gt;" style="align=left;strokeColor=none;fillColor=none;spacingLeft=4;spacingRight=4;fontSize=12;verticalAlign=top;resizable=0;rotatable=0;part=1;html=1;whiteSpace=wrap;" vertex="1" parent="oled7UmUhslEgD_XcxZ6-74">
          <mxGeometry y="50" width="150" height="140" as="geometry" />
        </mxCell>
        <mxCell id="oled7UmUhslEgD_XcxZ6-76" value="customer_address" style="swimlane;childLayout=stackLayout;horizontal=1;startSize=50;horizontalStack=0;rounded=1;fontSize=14;fontStyle=0;strokeWidth=2;resizeParent=0;resizeLast=1;shadow=0;dashed=0;align=center;arcSize=4;whiteSpace=wrap;html=1;" vertex="1" parent="1">
          <mxGeometry x="620" y="213" width="160" height="120" as="geometry" />
        </mxCell>
        <mxCell id="oled7UmUhslEgD_XcxZ6-77" value="customer_id(FK)-INT&lt;div&gt;address_id(FK)- INT&lt;/div&gt;&lt;div&gt;added_date - DATETIME&lt;/div&gt;" style="align=left;strokeColor=none;fillColor=none;spacingLeft=4;spacingRight=4;fontSize=12;verticalAlign=top;resizable=0;rotatable=0;part=1;html=1;whiteSpace=wrap;" vertex="1" parent="oled7UmUhslEgD_XcxZ6-76">
          <mxGeometry y="50" width="160" height="70" as="geometry" />
        </mxCell>
        <mxCell id="oled7UmUhslEgD_XcxZ6-78" value="author" style="swimlane;childLayout=stackLayout;horizontal=1;startSize=50;horizontalStack=0;rounded=1;fontSize=14;fontStyle=0;strokeWidth=2;resizeParent=0;resizeLast=1;shadow=0;dashed=0;align=center;arcSize=4;whiteSpace=wrap;html=1;" vertex="1" parent="1">
          <mxGeometry x="40" y="280" width="160" height="150" as="geometry" />
        </mxCell>
        <mxCell id="oled7UmUhslEgD_XcxZ6-79" value="author_id (PK) - INT,AUTO_INCREMENT&lt;div&gt;first_name - VARCHAR(100)&lt;/div&gt;&lt;div&gt;lat_name - VARCHAR(100)&lt;/div&gt;&lt;div&gt;bio - TEXT (optional)&lt;/div&gt;" style="align=left;strokeColor=none;fillColor=none;spacingLeft=4;spacingRight=4;fontSize=12;verticalAlign=top;resizable=0;rotatable=0;part=1;html=1;whiteSpace=wrap;" vertex="1" parent="oled7UmUhslEgD_XcxZ6-78">
          <mxGeometry y="50" width="160" height="100" as="geometry" />
        </mxCell>
        <mxCell id="7qd3vkHu0DefnyJ5vtt9-20" value="" style="edgeStyle=orthogonalEdgeStyle;rounded=0;orthogonalLoop=1;jettySize=auto;html=1;" edge="1" parent="1" target="oled7UmUhslEgD_XcxZ6-3">
          <mxGeometry relative="1" as="geometry">
            <mxPoint x="120" y="280" as="sourcePoint" />
          </mxGeometry>
        </mxCell>
        <mxCell id="7qd3vkHu0DefnyJ5vtt9-26" value="customer_address" style="swimlane;childLayout=stackLayout;horizontal=1;startSize=50;horizontalStack=0;rounded=1;fontSize=14;fontStyle=0;strokeWidth=2;resizeParent=0;resizeLast=1;shadow=0;dashed=0;align=center;arcSize=4;whiteSpace=wrap;html=1;" vertex="1" parent="1">
          <mxGeometry x="40" y="450" width="160" height="120" as="geometry" />
        </mxCell>
        <mxCell id="7qd3vkHu0DefnyJ5vtt9-27" value="customer_id(FK)-INT&lt;div&gt;address_id(FK)- INT&lt;/div&gt;&lt;div&gt;added_date - DATETIME&lt;/div&gt;" style="align=left;strokeColor=none;fillColor=none;spacingLeft=4;spacingRight=4;fontSize=12;verticalAlign=top;resizable=0;rotatable=0;part=1;html=1;whiteSpace=wrap;" vertex="1" parent="7qd3vkHu0DefnyJ5vtt9-26">
          <mxGeometry y="50" width="160" height="70" as="geometry" />
        </mxCell>
        <mxCell id="7qd3vkHu0DefnyJ5vtt9-49" value="" style="edgeStyle=orthogonalEdgeStyle;rounded=0;orthogonalLoop=1;jettySize=auto;html=1;" edge="1" parent="1" source="7qd3vkHu0DefnyJ5vtt9-28" target="oled7UmUhslEgD_XcxZ6-34">
          <mxGeometry relative="1" as="geometry" />
        </mxCell>
        <mxCell id="7qd3vkHu0DefnyJ5vtt9-28" value="cust_order" style="swimlane;childLayout=stackLayout;horizontal=1;startSize=50;horizontalStack=0;rounded=1;fontSize=14;fontStyle=0;strokeWidth=2;resizeParent=0;resizeLast=1;shadow=0;dashed=0;align=center;arcSize=4;whiteSpace=wrap;html=1;" vertex="1" parent="1">
          <mxGeometry x="275" y="450" width="150" height="190" as="geometry" />
        </mxCell>
        <mxCell id="7qd3vkHu0DefnyJ5vtt9-29" value="order_id(PK) - INT,AUTO_INCREMENT&lt;div&gt;customer_id (FK) - INT&lt;/div&gt;&lt;div&gt;order_date - DATETIME&lt;/div&gt;&lt;div&gt;shipping_method_id(FK) -INT&lt;/div&gt;&lt;div&gt;status_id (FK) - INT&lt;/div&gt;&lt;div&gt;total_amount - DECIMAL(10,2)&lt;/div&gt;" style="align=left;strokeColor=none;fillColor=none;spacingLeft=4;spacingRight=4;fontSize=12;verticalAlign=top;resizable=0;rotatable=0;part=1;html=1;whiteSpace=wrap;" vertex="1" parent="7qd3vkHu0DefnyJ5vtt9-28">
          <mxGeometry y="50" width="150" height="140" as="geometry" />
        </mxCell>
        <mxCell id="7qd3vkHu0DefnyJ5vtt9-34" value="&lt;font style=&quot;font-size: 18px;&quot;&gt;&lt;b style=&quot;&quot;&gt;BOOK&amp;nbsp; STORE DATABASE&lt;/b&gt;&lt;/font&gt;" style="text;html=1;align=center;verticalAlign=middle;resizable=0;points=[];autosize=1;strokeColor=none;fillColor=none;" vertex="1" parent="1">
          <mxGeometry x="230" y="213" width="250" height="40" as="geometry" />
        </mxCell>
        <mxCell id="7qd3vkHu0DefnyJ5vtt9-39" value="" style="edgeStyle=orthogonalEdgeStyle;rounded=0;orthogonalLoop=1;jettySize=auto;html=1;" edge="1" parent="1" source="oled7UmUhslEgD_XcxZ6-6" target="oled7UmUhslEgD_XcxZ6-12">
          <mxGeometry relative="1" as="geometry" />
        </mxCell>
        <mxCell id="7qd3vkHu0DefnyJ5vtt9-40" value="" style="edgeStyle=orthogonalEdgeStyle;rounded=0;orthogonalLoop=1;jettySize=auto;html=1;" edge="1" parent="1" source="oled7UmUhslEgD_XcxZ6-3" target="oled7UmUhslEgD_XcxZ6-6">
          <mxGeometry relative="1" as="geometry" />
        </mxCell>
        <mxCell id="7qd3vkHu0DefnyJ5vtt9-45" value="" style="edgeStyle=orthogonalEdgeStyle;rounded=0;orthogonalLoop=1;jettySize=auto;html=1;" edge="1" parent="1" source="oled7UmUhslEgD_XcxZ6-12" target="oled7UmUhslEgD_XcxZ6-76">
          <mxGeometry relative="1" as="geometry" />
        </mxCell>
        <mxCell id="7qd3vkHu0DefnyJ5vtt9-46" value="" style="edgeStyle=orthogonalEdgeStyle;rounded=0;orthogonalLoop=1;jettySize=auto;html=1;" edge="1" parent="1" source="7qd3vkHu0DefnyJ5vtt9-27" target="7qd3vkHu0DefnyJ5vtt9-29">
          <mxGeometry relative="1" as="geometry" />
        </mxCell>
        <mxCell id="7qd3vkHu0DefnyJ5vtt9-48" value="" style="edgeStyle=orthogonalEdgeStyle;rounded=0;orthogonalLoop=1;jettySize=auto;html=1;" edge="1" parent="1" source="oled7UmUhslEgD_XcxZ6-34" target="oled7UmUhslEgD_XcxZ6-79">
          <mxGeometry relative="1" as="geometry" />
        </mxCell>
        <mxCell id="7qd3vkHu0DefnyJ5vtt9-54" value="" style="edgeStyle=orthogonalEdgeStyle;rounded=0;orthogonalLoop=1;jettySize=auto;html=1;" edge="1" parent="1" source="oled7UmUhslEgD_XcxZ6-18" target="oled7UmUhslEgD_XcxZ6-74">
          <mxGeometry relative="1" as="geometry" />
        </mxCell>
        <mxCell id="7qd3vkHu0DefnyJ5vtt9-61" value="" style="edgeStyle=orthogonalEdgeStyle;rounded=0;orthogonalLoop=1;jettySize=auto;html=1;" edge="1" parent="1" source="oled7UmUhslEgD_XcxZ6-75" target="oled7UmUhslEgD_XcxZ6-43">
          <mxGeometry relative="1" as="geometry" />
        </mxCell>
        <mxCell id="7qd3vkHu0DefnyJ5vtt9-62" value="" style="edgeStyle=orthogonalEdgeStyle;rounded=0;orthogonalLoop=1;jettySize=auto;html=1;" edge="1" parent="1" source="oled7UmUhslEgD_XcxZ6-44" target="oled7UmUhslEgD_XcxZ6-45">
          <mxGeometry relative="1" as="geometry" />
        </mxCell>
        <mxCell id="7qd3vkHu0DefnyJ5vtt9-63" value="shipping_method" style="swimlane;childLayout=stackLayout;horizontal=1;startSize=50;horizontalStack=0;rounded=1;fontSize=14;fontStyle=0;strokeWidth=2;resizeParent=0;resizeLast=1;shadow=0;dashed=0;align=center;arcSize=4;whiteSpace=wrap;html=1;" vertex="1" parent="1">
          <mxGeometry x="1090" y="315" width="160" height="120" as="geometry" />
        </mxCell>
        <mxCell id="7qd3vkHu0DefnyJ5vtt9-64" value="shipping_method_id(PK)-INT,AUTO_INCREMENT&lt;div&gt;method_name -VARCHAR(100)&lt;/div&gt;" style="align=left;strokeColor=none;fillColor=none;spacingLeft=4;spacingRight=4;fontSize=12;verticalAlign=top;resizable=0;rotatable=0;part=1;html=1;whiteSpace=wrap;" vertex="1" parent="7qd3vkHu0DefnyJ5vtt9-63">
          <mxGeometry y="50" width="160" height="70" as="geometry" />
        </mxCell>
        <mxCell id="7qd3vkHu0DefnyJ5vtt9-65" value="" style="edgeStyle=orthogonalEdgeStyle;rounded=0;orthogonalLoop=1;jettySize=auto;html=1;" edge="1" parent="1" source="oled7UmUhslEgD_XcxZ6-75" target="7qd3vkHu0DefnyJ5vtt9-64">
          <mxGeometry relative="1" as="geometry" />
        </mxCell>
        <mxCell id="7qd3vkHu0DefnyJ5vtt9-67" value="address_status" style="swimlane;childLayout=stackLayout;horizontal=1;startSize=50;horizontalStack=0;rounded=1;fontSize=14;fontStyle=0;strokeWidth=2;resizeParent=0;resizeLast=1;shadow=0;dashed=0;align=center;arcSize=4;whiteSpace=wrap;html=1;" vertex="1" parent="1">
          <mxGeometry x="440" y="430" width="160" height="120" as="geometry" />
        </mxCell>
        <mxCell id="7qd3vkHu0DefnyJ5vtt9-68" value="status_id(PK) - INT,AUTO_INCREMENT&lt;div&gt;status_name - VARCHAR(100)&lt;/div&gt;&lt;div&gt;&lt;br&gt;&lt;/div&gt;" style="align=left;strokeColor=none;fillColor=none;spacingLeft=4;spacingRight=4;fontSize=12;verticalAlign=top;resizable=0;rotatable=0;part=1;html=1;whiteSpace=wrap;" vertex="1" parent="7qd3vkHu0DefnyJ5vtt9-67">
          <mxGeometry y="50" width="160" height="70" as="geometry" />
        </mxCell>
        <mxCell id="7qd3vkHu0DefnyJ5vtt9-70" value="" style="edgeStyle=orthogonalEdgeStyle;rounded=0;orthogonalLoop=1;jettySize=auto;html=1;" edge="1" parent="1" source="7qd3vkHu0DefnyJ5vtt9-68" target="oled7UmUhslEgD_XcxZ6-30">
          <mxGeometry relative="1" as="geometry" />
        </mxCell>
        <mxCell id="7qd3vkHu0DefnyJ5vtt9-76" style="edgeStyle=orthogonalEdgeStyle;rounded=0;orthogonalLoop=1;jettySize=auto;html=1;entryX=1.006;entryY=0.357;entryDx=0;entryDy=0;entryPerimeter=0;" edge="1" parent="1" source="7qd3vkHu0DefnyJ5vtt9-67" target="oled7UmUhslEgD_XcxZ6-34">
          <mxGeometry relative="1" as="geometry" />
        </mxCell>
        <mxCell id="7qd3vkHu0DefnyJ5vtt9-78" style="edgeStyle=orthogonalEdgeStyle;rounded=0;orthogonalLoop=1;jettySize=auto;html=1;entryX=1;entryY=0.25;entryDx=0;entryDy=0;" edge="1" parent="1" source="oled7UmUhslEgD_XcxZ6-75" target="oled7UmUhslEgD_XcxZ6-77">
          <mxGeometry relative="1" as="geometry" />
        </mxCell>
      </root>
    </mxGraphModel>
  </diagram>
</mxfile>
